{
  "accessors": [
    {
      "bufferView": 2,
      "componentType": 5126,
      "count": 2082,
      "max": [
        -0.4044494926929474,
        0.46063292026519775,
        0.1013714149594307
      ],
      "min": [
        -0.6454261541366577,
        -0.46021121740341187,
        -0.0004909017006866634
      ],
      "type": "VEC3"
    },
    {
      "bufferView": 2,
      "byteOffset": 24984,
      "componentType": 5126,
      "count": 2082,
      "max": [
        0.9999920129776001,
        1.0,
        0.9999920129776001
      ],
      "min": [
        -0.9999920129776001,
        -1.0,
        -0.9999979734420776
      ],
      "type": "VEC3"
    },
    {
      "bufferView": 1,
      "componentType": 5126,
      "count": 2082,
      "max": [
        0.0,
        0.0
      ],
      "min": [
        0.0,
        0.0
      ],
      "type": "VEC2"
    },
    {
      "bufferView": 0,
      "componentType": 5125,
      "count": 12480,
      "type": "SCALAR"
    },
    {
      "bufferView": 2,
      "byteOffset": 49968,
      "componentType": 5126,
      "count": 2862,
      "max": [
        0.13546426594257355,
        0.6452997922897339,
        0.10371118038892746
      ],
      "min": [
        -0.460566908121109,
        -0.6452454328536987,
        -0.0026627033948898315
      ],
      "type": "VEC3"
    },
    {
      "bufferView": 2,
      "byteOffset": 84312,
      "componentType": 5126,
      "count": 2862,
      "max": [
        0.9972965717315674,
        0.9999833703041077,
        1.0
      ],
      "min": [
        -0.9999139308929443,
        -0.9999832510948181,
        -0.9999994039535522
      ],
      "type": "VEC3"
    },
    {
      "bufferView": 1,
      "byteOffset": 16656,
      "componentType": 5126,
      "count": 2862,
      "max": [
        0.0,
        0.0
      ],
      "min": [
        0.0,
        0.0
      ],
      "type": "VEC2"
    },
    {
      "bufferView": 0,
      "byteOffset": 49920,
      "componentType": 5125,
      "count": 14472,
      "type": "SCALAR"
    },
    {
      "bufferView": 2,
      "byteOffset": 118656,
      "componentType": 5126,
      "count": 7450,
      "max": [
        0.9746237993240356,
        0.9746237993240356,
        0.9914131164550781
      ],
      "min": [
        -0.9746237993240356,
        -0.9746237993240356,
        -4.67080545425415
      ],
      "type": "VEC3"
    },
    {
      "bufferView": 2,
      "byteOffset": 208056,
      "componentType": 5126,
      "count": 7450,
      "max": [
        0.9999998211860657,
        0.9999998807907104,
        1.0
      ],
      "min": [
        -0.9999998211860657,
        -0.9999998211860657,
        -1.0
      ],
      "type": "VEC3"
    },
    {
      "bufferView": 1,
      "byteOffset": 39552,
      "componentType": 5126,
      "count": 7450,
      "max": [
        1.0000001192092896,
        1.0000001192092896
      ],
      "min": [
        0.0,
        0.010000006295740604
      ],
      "type": "VEC2"
    },
    {
      "bufferView": 0,
      "byteOffset": 107808,
      "componentType": 5125,
      "count": 38400,
      "type": "SCALAR"
    },
    {
      "bufferView": 2,
      "byteOffset": 297456,
      "componentType": 5126,
      "count": 5193,
      "max": [
        0.9935951828956604,
        0.9935952425003052,
        1.6602174043655396
      ],
      "min": [
        -0.9935951828956604,
        -0.9935951828956604,
        -1.9862534999847412
      ],
      "type": "VEC3"
    },
    {
      "bufferView": 2,
      "byteOffset": 359772,
      "componentType": 5126,
      "count": 5193,
      "max": [
        1.0,
        1.0,
        1.0
      ],
      "min": [
        -1.0,
        -1.0,
        -1.0
      ],
      "type": "VEC3"
    },
    {
      "bufferView": 1,
      "byteOffset": 99152,
      "componentType": 5126,
      "count": 5193,
      "max": [
        1.0000001192092896,
        1.0000001192092896
      ],
      "min": [
        0.0,
        0.010000006295740604
      ],
      "type": "VEC2"
    },
    {
      "bufferView": 0,
      "byteOffset": 261408,
      "componentType": 5125,
      "count": 26112,
      "type": "SCALAR"
    },
    {
      "bufferView": 2,
      "byteOffset": 422088,
      "componentType": 5126,
      "count": 41180,
      "max": [
        1.02394700050354,
        1.0239471197128296,
        0.22762325406074524
      ],
      "min": [
        -1.02394700050354,
        -1.0239472389221191,
        -1.0000005960464478
      ],
      "type": "VEC3"
    },
    {
      "bufferView": 2,
      "byteOffset": 916248,
      "componentType": 5126,
      "count": 41180,
      "max": [
        1.0,
        1.0,
        1.0
      ],
      "min": [
        -1.0,
        -1.0,
        -1.0
      ],
      "type": "VEC3"
    },
    {
      "bufferView": 1,
      "byteOffset": 140696,
      "componentType": 5126,
      "count": 41180,
      "max": [
        1.0000001192092896,
        1.000000238418579
      ],
      "min": [
        0.0,
        0.01000000536441803
      ],
      "type": "VEC2"
    },
    {
      "bufferView": 0,
      "byteOffset": 365856,
      "componentType": 5125,
      "count": 217896,
      "type": "SCALAR"
    },
    {
      "bufferView": 2,
      "byteOffset": 1410408,
      "componentType": 5126,
      "count": 9665,
      "max": [
        0.6674033999443054,
        0.6674033999443054,
        0.30739036202430725
      ],
      "min": [
        -0.6674032807350159,
        -0.6674033999443054,
        0.20093058049678802
      ],
      "type": "VEC3"
    },
    {
      "bufferView": 2,
      "byteOffset": 1526388,
      "componentType": 5126,
      "count": 9665,
      "max": [
        0.9999311566352844,
        0.9999312162399292,
        0.9966927170753479
      ],
      "min": [
        -0.9999312162399292,
        -0.9999311566352844,
        0.011731202714145184
      ],
      "type": "VEC3"
    },
    {
      "bufferView": 1,
      "byteOffset": 470136,
      "componentType": 5126,
      "count": 9665,
      "max": [
        1.0000001192092896,
        1.000000238418579
      ],
      "min": [
        0.0,
        0.01000000536441803
      ],
      "type": "VEC2"
    },
    {
      "bufferView": 0,
      "byteOffset": 1237440,
      "componentType": 5125,
      "count": 49152,
      "type": "SCALAR"
    },
    {
      "bufferView": 2,
      "byteOffset": 1642368,
      "componentType": 5126,
      "count": 40320,
      "max": [
        1.0239471197128296,
        1.0239472389221191,
        0.22762329876422882
      ],
      "min": [
        -1.0239471197128296,
        -1.0239473581314087,
        -1.0000007152557373
      ],
      "type": "VEC3"
    },
    {
      "bufferView": 2,
      "byteOffset": 2126208,
      "componentType": 5126,
      "count": 40320,
      "max": [
        1.0,
        1.0,
        1.0
      ],
      "min": [
        -1.0,
        -1.0,
        -1.0
      ],
      "type": "VEC3"
    },
    {
      "bufferView": 1,
      "byteOffset": 547456,
      "componentType": 5126,
      "count": 40320,
      "max": [
        1.0000001192092896,
        1.000000238418579
      ],
      "min": [
        0.0,
        0.010000006295740604
      ],
      "type": "VEC2"
    },
    {
      "bufferView": 0,
      "byteOffset": 1434048,
      "componentType": 5125,
      "count": 216576,
      "type": "SCALAR"
    },
    {
      "bufferView": 2,
      "byteOffset": 2610048,
      "componentType": 5126,
      "count": 9665,
      "max": [
        0.6674034595489502,
        0.6674034595489502,
        0.30739036202430725
      ],
      "min": [
        -0.6674033403396606,
        -0.6674034595489502,
        0.200930655002594
      ],
      "type": "VEC3"
    },
    {
      "bufferView": 2,
      "byteOffset": 2726028,
      "componentType": 5126,
      "count": 9665,
      "max": [
        0.9999311566352844,
        0.9999312162399292,
        0.9966925382614136
      ],
      "min": [
        -0.9999311566352844,
        -0.9999311566352844,
        0.011731703765690327
      ],
      "type": "VEC3"
    },
    {
      "bufferView": 1,
      "byteOffset": 870016,
      "componentType": 5126,
      "count": 9665,
      "max": [
        1.0000001192092896,
        1.000000238418579
      ],
      "min": [
        0.0,
        0.01000000536441803
      ],
      "type": "VEC2"
    },
    {
      "bufferView": 0,
      "byteOffset": 2300352,
      "componentType": 5125,
      "count": 49152,
      "type": "SCALAR"
    },
    {
      "bufferView": 2,
      "byteOffset": 2842008,
      "componentType": 5126,
      "count": 5193,
      "max": [
        0.9935951828956604,
        0.9935952425003052,
        1.6602174043655396
      ],
      "min": [
        -0.9935951828956604,
        -0.9935951828956604,
        -1.9862534999847412
      ],
      "type": "VEC3"
    },
    {
      "bufferView": 2,
      "byteOffset": 2904324,
      "componentType": 5126,
      "count": 5193,
      "max": [
        1.0,
        1.0,
        1.0
      ],
      "min": [
        -1.0,
        -1.0,
        -1.0
      ],
      "type": "VEC3"
    },
    {
      "bufferView": 1,
      "byteOffset": 947336,
      "componentType": 5126,
      "count": 5193,
      "max": [
        1.0000001192092896,
        1.0000001192092896
      ],
      "min": [
        0.0,
        0.010000006295740604
      ],
      "type": "VEC2"
    },
    {
      "bufferView": 0,
      "byteOffset": 2496960,
      "componentType": 5125,
      "count": 26112,
      "type": "SCALAR"
    },
    {
      "bufferView": 2,
      "byteOffset": 2966640,
      "componentType": 5126,
      "count": 7450,
      "max": [
        0.9746237993240356,
        0.9746237993240356,
        0.9914131164550781
      ],
      "min": [
        -0.9746237993240356,
        -0.9746237993240356,
        -4.67080545425415
      ],
      "type": "VEC3"
    },
    {
      "bufferView": 2,
      "byteOffset": 3056040,
      "componentType": 5126,
      "count": 7450,
      "max": [
        0.9999998211860657,
        0.9999998807907104,
        1.0
      ],
      "min": [
        -0.9999998211860657,
        -0.9999998211860657,
        -1.0
      ],
      "type": "VEC3"
    },
    {
      "bufferView": 1,
      "byteOffset": 988880,
      "componentType": 5126,
      "count": 7450,
      "max": [
        1.0000001192092896,
        1.0000001192092896
      ],
      "min": [
        0.0,
        0.010000006295740604
      ],
      "type": "VEC2"
    },
    {
      "bufferView": 0,
      "byteOffset": 2601408,
      "componentType": 5125,
      "count": 38400,
      "type": "SCALAR"
    }
  ],
  "asset": {
    "extras": {
      "author": "Nj Young (https://sketchfab.com/NjYoung9)",
      "license": "CC-BY-4.0 (http://creativecommons.org/licenses/by/4.0/)",
      "source": "https://sketchfab.com/3d-models/wireless-headphone-2ebda7b42928419d98da3b1a83645415",
      "title": "Wireless headphone"
    },
    "generator": "Sketchfab-12.67.0",
    "version": "2.0"
  },
  "bufferViews": [
    {
      "buffer": 0,
      "byteLength": 2755008,
      "name": "floatBufferViews",
      "target": 34963
    },
    {
      "buffer": 0,
      "byteLength": 1048480,
      "byteOffset": 2755008,
      "byteStride": 8,
      "name": "floatBufferViews",
      "target": 34962
    },
    {
      "buffer": 0,
      "byteLength": 3145440,
      "byteOffset": 3803488,
      "byteStride": 12,
      "name": "floatBufferViews",
      "target": 34962
    }
  ],
  "buffers": [
    {
      "byteLength": 6948928,
      "uri": "scene.bin"
    }
  ],
  "materials": [
    {
      "doubleSided": true,
      "name": "Material.002",
      "pbrMetallicRoughness": {
        "baseColorFactor": [
          0.0183409,
          0.0183409,
          0.0183409,
          1.0
        ],
        "metallicFactor": 0.0,
        "roughnessFactor": 0.9958988500831474
      }
    },
    {
      "doubleSided": true,
      "name": "Material.006",
      "pbrMetallicRoughness": {
        "baseColorFactor": [
          0.0839904,
          0.0839904,
          0.0839904,
          1.0
        ],
        "metallicFactor": 0.0,
        "roughnessFactor": 0.9898991933974423
      }
    },
    {
      "doubleSided": true,
      "name": "Material.003",
      "pbrMetallicRoughness": {
        "baseColorFactor": [
          0.0195441,
          0.0195441,
          0.0195441,
          1.0
        ],
        "metallicFactor": 0.0,
        "roughnessFactor": 0.9956298063840946
      }
    },
    {
      "doubleSided": true,
      "name": "Material.004",
      "pbrMetallicRoughness": {
        "baseColorFactor": [
          0.8,
          0.8,
          0.8,
          1.0
        ],
        "metallicFactor": 0.0,
        "roughnessFactor": 0.7861026469638194
      }
    }
  ],
  "meshes": [
    {
      "name": "Circle_Material.002_0",
      "primitives": [
        {
          "attributes": {
            "NORMAL": 1,
            "POSITION": 0,
            "TEXCOORD_0": 2
          },
          "indices": 3,
          "material": 0,
          "mode": 4
        }
      ]
    },
    {
      "name": "Circle.001_Material.002_0",
      "primitives": [
        {
          "attributes": {
            "NORMAL": 5,
            "POSITION": 4,
            "TEXCOORD_0": 6
          },
          "indices": 7,
          "material": 0,
          "mode": 4
        }
      ]
    },
    {
      "name": "Cylinder.005_Material.006_0",
      "primitives": [
        {
          "attributes": {
            "NORMAL": 9,
            "POSITION": 8,
            "TEXCOORD_0": 10
          },
          "indices": 11,
          "material": 1,
          "mode": 4
        }
      ]
    },
    {
      "name": "Cylinder.006_Material.002_0",
      "primitives": [
        {
          "attributes": {
            "NORMAL": 13,
            "POSITION": 12,
            "TEXCOORD_0": 14
          },
          "indices": 15,
          "material": 0,
          "mode": 4
        }
      ]
    },
    {
      "name": "Cylinder.007_Material.003_0",
      "primitives": [
        {
          "attributes": {
            "NORMAL": 17,
            "POSITION": 16,
            "TEXCOORD_0": 18
          },
          "indices": 19,
          "material": 2,
          "mode": 4
        }
      ]
    },
    {
      "name": "Cylinder.007_Material.004_0",
      "primitives": [
        {
          "attributes": {
            "NORMAL": 21,
            "POSITION": 20,
            "TEXCOORD_0": 22
          },
          "indices": 23,
          "material": 3,
          "mode": 4
        }
      ]
    },
    {
      "name": "Cylinder.008_Material.003_0",
      "primitives": [
        {
          "attributes": {
            "NORMAL": 25,
            "POSITION": 24,
            "TEXCOORD_0": 26
          },
          "indices": 27,
          "material": 2,
          "mode": 4
        }
      ]
    },
    {
      "name": "Cylinder.008_Material.004_0",
      "primitives": [
        {
          "attributes": {
            "NORMAL": 29,
            "POSITION": 28,
            "TEXCOORD_0": 30
          },
          "indices": 31,
          "material": 3,
          "mode": 4
        }
      ]
    },
    {
      "name": "Cylinder.009_Material.002_0",
      "primitives": [
        {
          "attributes": {
            "NORMAL": 33,
            "POSITION": 32,
            "TEXCOORD_0": 34
          },
          "indices": 35,
          "material": 0,
          "mode": 4
        }
      ]
    },
    {
      "name": "Cylinder.010_Material.006_0",
      "primitives": [
        {
          "attributes": {
            "NORMAL": 37,
            "POSITION": 36,
            "TEXCOORD_0": 38
          },
          "indices": 39,
          "material": 1,
          "mode": 4
        }
      ]
    }
  ],
  "nodes": [
    {
      "children": [
        1
      ],
      "matrix": [
        -2.220446049250313e-16,
        -1.0,
        -2.220446049250313e-16,
        0.0,
        1.6081226229577292e-16,
        2.220446049250313e-16,
        -1.0,
        0.0,
        1.0,
        -2.2204460492503136e-16,
        1.6081226229577287e-16,
        0.0,
        -0.0011977297253906727,
        -1.5140457153320313,
        -0.0017816353356469058,
        1.0
      ],
      "name": "Sketchfab_model"
    },
    {
      "children": [
        2
      ],
      "matrix": [
        0.009999999776482582,
        0.0,
        0.0,
        0.0,
        0.0,
        0.0,
        0.009999999776482582,
        0.0,
        0.0,
        -0.009999999776482582,
        0.0,
        0.0,
        0.0,
        0.0,
        0.0,
        1.0
      ],
      "name": "c50181fb8b3a4fc6a825efeddb6e6983.fbx"
    },
    {
      "children": [
        3,
        5,
        7,
        9,
        11,
        14,
        17,
        19
      ],
      "name": "RootNode"
    },
    {
      "children": [
        4
      ],
      "matrix": [
        417.3930088304293,
        -18.16763412941729,
        -2.1575553897145783e-07,
        0.0,
        1.1517264360063816e-06,
        3.140333284202758e-05,
        -416.21966552734256,
        0.0,
        35.5135017095742,
        815.9063104789193,
        6.165753662948405e-05,
        0.0,
        -84.3764877319336,
        -115.7573013305664,
        0.0,
        1.0
      ],
      "name": "Circle"
    },
    {
      "mesh": 0,
      "name": "Circle_Material.002_0"
    },
    {
      "children": [
        6
      ],
      "matrix": [
        466.9754574118364,
        -20.325780141760067,
        -9.895846733341062e-07,
        0.0,
        -1.6265948311782215e-06,
        -1.7650631703428453e-05,
        -405.0355834960934,
        0.0,
        30.23842554835783,
        694.7139299635977,
        -3.0395663796822315e-05,
        0.0,
        -62.06671142578125,
        -110.22942352294922,
        0.0,
        1.0
      ],
      "name": "Circle.001"
    },
    {
      "mesh": 1,
      "name": "Circle.001_Material.002_0"
    },
    {
      "children": [
        8
      ],
      "matrix": [
        6.499106278497902,
        136.67648503938653,
        -1.7861793246930067e-06,
        0.0,
        -135.27828588780926,
        6.432620737753451,
        19.521954380677023,
        0.0,
        0.9464568000039627,
        -0.04500490035492349,
        6.573345604871272,
        0.0,
        59.94929504394531,
        -78.27783966064453,
        211.88282775878906,
        1.0
      ],
      "name": "Cylinder.005"
    },
    {
      "mesh": 2,
      "name": "Cylinder.005_Material.006_0"
    },
    {
      "children": [
        10
      ],
      "matrix": [
        6.4258197432143325,
        135.13594514226108,
        4.563710552763785e-07,
        0.0,
        -133.75350542705098,
        6.360083589777987,
        19.301915748737468,
        0.0,
        0.6772374226198218,
        -0.032203184305262665,
        4.7035587248255,
        0.0,
        61.780643463134766,
        -78.36492156982422,
        226.4312744140625,
        1.0
      ],
      "name": "Cylinder.006"
    },
    {
      "mesh": 3,
      "name": "Cylinder.006_Material.002_0"
    },
    {
      "children": [
        12,
        13
      ],
      "matrix": [
        6.20300380605714,
        130.45009283644615,
        1.077717035086445e-06,
        0.0,
        -129.11555891121535,
        6.139545521603582,
        18.63261747717806,
        0.0,
        5.039980532307379,
        -0.2396553001129624,
        35.003738940806485,
        0.0,
        68.00177001953125,
        -78.66073608398438,
        267.80902099609375,
        1.0
      ],
      "name": "Cylinder.007"
    },
    {
      "mesh": 4,
      "name": "Cylinder.007_Material.003_0"
    },
    {
      "mesh": 5,
      "name": "Cylinder.007_Material.004_0"
    },
    {
      "children": [
        15,
        16
      ],
      "matrix": [
        -6.202142115025491,
        -130.45008644195931,
        0.09149976467933088,
        0.0,
        -129.28516304367332,
        6.134538977631462,
        -17.418784114836736,
        0.0,
        4.710483781076021,
        -0.24854038237303044,
        -35.049538491848814,
        0.0,
        67.69646453857422,
        -78.6689682006836,
        -268.85089111328125,
        1.0
      ],
      "name": "Cylinder.008"
    },
    {
      "mesh": 6,
      "name": "Cylinder.008_Material.003_0"
    },
    {
      "mesh": 7,
      "name": "Cylinder.008_Material.004_0"
    },
    {
      "children": [
        18
      ],
      "matrix": [
        -6.424927125686271,
        -135.1359390650822,
        0.09478718919595486,
        0.0,
        -133.92917085952033,
        6.354895546977343,
        -18.044478259335712,
        0.0,
        0.6329619476721414,
        -0.03339714679165727,
        -4.709712466904746,
        0.0,
        61.864830017089844,
        -78.36264038085938,
        -227.41651916503906,
        1.0
      ],
      "name": "Cylinder.009"
    },
    {
      "mesh": 8,
      "name": "Cylinder.009_Material.002_0"
    },
    {
      "children": [
        20
      ],
      "matrix": [
        -6.498170907234074,
        -136.67648061621833,
        0.09586770964560667,
        0.0,
        -135.4559704310555,
        6.427341695867886,
        -18.250186257855972,
        0.0,
        0.8845809286096494,
        -0.04667338656537041,
        -6.581946738295653,
        0.0,
        60.17042922973633,
        -78.2718734741211,
        -212.85153198242188,
        1.0
      ],
      "name": "Cylinder.010"
    },
    {
      "mesh": 9,
      "name": "Cylinder.010_Material.006_0"
    }
  ],
  "scene": 0,
  "scenes": [
    {
      "name": "Sketchfab_Scene",
      "nodes": [
        0
      ]
    }
  ]
}
